<?xml version="1.0" encoding="utf-8"?><!--Generator: Adobe Illustrator 27.0.0, SVG Export Plug-In . SVG Version: 6.00 Build 0)--><svg version="1.1" id="Layer_1" xmlns="http://www.w3.org/2000/svg" xmlns:xlink="http://www.w3.org/1999/xlink" x="0px" y="0px" viewBox="0 0 1920 509" style="enable-background:new 0 0 1920 509;" xml:space="preserve"><style type="text/css">.st0{fill:#00C1AE;}
	.st1{fill:#1A1A1A;}
	.st2{fill:#FFFFFF;}
	.st3{fill-rule:evenodd;clip-rule:evenodd;fill:#1A1A1A;}</style><g><g><g><path class="st0" d="M447.61,211.44c0,89.16-72.28,161.43-161.44,161.43s-161.44-72.28-161.44-161.43
				C124.74,122.28,197.02,50,286.18,50S447.61,122.28,447.61,211.44"/></g><path class="st1" d="M286.18,125.23c-23.39,0-45.93,3.48-57.28,5.56c-9.23,1.68-17.06,7.79-20.95,16.35l-16.91,37.19
			c-9.72,3.11-19.79,10.09-19.79,15.02v79.13c0,10.58,8.57,19.16,19.16,19.16c10.58,0,19.16-8.57,19.16-19.16H362.8
			c0,10.58,8.57,19.16,19.16,19.16s19.16-8.57,19.16-19.16v-79.13c0-4.93-10.07-11.91-19.79-15.02l-16.91-37.17
			c-3.9-8.58-11.74-14.69-20.95-16.37C332.1,128.71,309.57,125.23,286.18,125.23z M286.18,144.39c21.88,0,43.13,3.28,53.86,5.24
			c3.05,0.57,5.64,2.59,6.94,5.44l10.51,23.12c-12.38-2.48-34.1-5.07-71.31-5.07s-58.94,2.59-71.31,5.07l10.51-23.12
			c1.29-2.85,3.9-4.89,6.96-5.44C243.06,147.67,264.3,144.39,286.18,144.39z M161.66,163.54c-5.29-0.07-9.64,4.15-9.71,9.44
			c-0.07,5.29,4.15,9.64,9.44,9.71c0.09,0,0.18,0,0.27,0h9.58c5.29,0.07,9.64-4.15,9.71-9.44c0.07-5.29-4.15-9.64-9.44-9.71
			c-0.09,0-0.18,0-0.27,0H161.66z M401.12,163.54c-5.29-0.07-9.64,4.15-9.71,9.44c-0.07,5.29,4.15,9.64,9.44,9.71
			c0.09,0,0.18,0,0.27,0h9.58c5.29,0.07,9.64-4.15,9.71-9.44c0.07-5.29-4.15-9.64-9.44-9.71c-0.09,0-0.18,0-0.27,0H401.12z
			 M195.18,192.28c7.93,0,14.37,6.44,14.37,14.37s-6.44,14.37-14.37,14.37s-14.37-6.44-14.37-14.37S187.25,192.28,195.18,192.28z
			 M377.17,192.28c7.93,0,14.37,6.44,14.37,14.37s-6.44,14.37-14.37,14.37s-14.37-6.44-14.37-14.37S369.24,192.28,377.17,192.28z
			 M286.18,235.38c47.8,0,76.63,4.79,76.63,4.79l-4.28,8.57c-3.25,6.49-9.89,10.59-17.14,10.59H230.97
			c-7.26,0-13.89-4.09-17.14-10.59l-4.28-8.57C209.55,240.17,238.38,235.38,286.18,235.38z"/><g><g><path class="st1" d="M638.34,270.89c-10.37,4.86-20.74,7.29-31.11,7.29c-9.72,0-18.75-1.89-27.06-5.67
					c-8.32-3.78-15.67-8.96-22.04-15.56c-6.38-6.59-11.29-14.31-14.75-23.17s-5.18-18.36-5.18-28.52c0-10.37,1.73-19.98,5.18-28.84
					s8.37-16.58,14.75-23.17c6.37-6.59,13.72-11.72,22.04-15.39c8.31-3.67,17.34-5.51,27.06-5.51c10.58,0,21.17,2.65,31.76,7.94
					c10.58,5.3,19.66,12.59,27.22,21.88l29.81-35c-7.56-7.99-16.15-14.75-25.76-20.26c-9.62-5.51-19.88-9.77-30.79-12.8
					c-10.91-3.02-21.88-4.54-32.89-4.54c-17.29,0-33.22,2.92-47.8,8.75c-14.58,5.83-27.38,14.05-38.4,24.63
					c-11.02,10.59-19.56,22.9-25.6,36.94c-6.05,14.05-9.07,29.28-9.07,45.7c0,16.64,3.02,32.08,9.07,46.34
					c6.05,14.26,14.42,26.74,25.12,37.43c10.7,10.7,23.22,19.01,37.59,24.95c14.37,5.94,30.08,8.91,47.15,8.91
					c11.02,0,22.04-1.68,33.06-5.02c11.02-3.35,21.55-8.05,31.6-14.1c10.05-6.05,19.07-13.18,27.06-21.39l-30.14-31.44
					C657.99,259.5,648.71,266.03,638.34,270.89z"/><path class="st1" d="M799.08,92.81l-98.84,226.86h53.15l18.17-45.37h104.08l18.08,45.37h54.45L851.58,92.81H799.08z
					 M787.51,234.43l36.2-90.42l36.03,90.42H787.51z"/><path class="st1" d="M1141.31,232.33c16.2-14.58,24.31-34.95,24.31-61.09c0-24.84-8.1-44.13-24.31-57.85
					c-16.2-13.72-39.21-20.58-69.03-20.58h-98.52v226.86h51.2V254.2h47.32c1.5,0,2.96-0.03,4.43-0.07l36.41,65.53h58.01
					l-48.83-74.97C1129.42,241.42,1135.77,237.31,1141.31,232.33z M1024.96,133.97h47.32c14.26,0,25.28,3.24,33.06,9.72
					s11.67,16.2,11.67,29.17c0,13.4-3.89,23.39-11.67,29.98s-18.8,9.88-33.06,9.88h-47.32V133.97z"/><path class="st1" d="M1374.16,224.55c-4.21-7.88-9.94-14.37-17.18-19.44c-7.24-5.07-15.13-9.24-23.66-12.48
					c-8.54-3.24-17.13-6.1-25.76-8.59c-8.64-2.48-16.53-4.97-23.66-7.45s-12.91-5.72-17.34-9.72c-4.43-4-6.64-9.12-6.64-15.39
					c0-6.69,2.64-11.72,7.94-15.07c5.29-3.35,12.26-5.02,20.9-5.02c6.26,0,13.34,0.92,21.23,2.75c7.88,1.84,16.09,4.43,24.63,7.78
					c8.53,3.35,16.8,7.51,24.79,12.48l19.77-40.83c-11.24-7.34-24.42-13.34-39.54-17.99c-15.13-4.64-30.68-6.97-46.67-6.97
					c-17.5,0-32.84,2.75-46.02,8.26s-23.45,13.29-30.79,23.33c-7.35,10.05-11.02,21.99-11.02,35.81c0,11.67,2.21,21.28,6.64,28.84
					c4.43,7.57,10.21,13.77,17.34,18.64c7.13,4.86,15.01,8.86,23.66,11.99c8.64,3.13,17.28,5.83,25.93,8.1
					c8.64,2.27,16.53,4.75,23.66,7.45s12.85,6,17.18,9.88c4.32,3.89,6.48,9.07,6.48,15.56c0,7.57-2.97,13.4-8.91,17.5
					c-5.94,4.11-14.21,6.16-24.79,6.16c-8,0-16.75-1.4-26.25-4.21c-9.51-2.81-18.96-6.81-28.36-11.99
					c-9.4-5.19-17.99-11.23-25.76-18.15l-20.42,40.19c8.64,7.35,18.31,13.77,29.01,19.28c10.69,5.51,22.09,9.78,34.19,12.8
					s24.41,4.54,36.95,4.54c16.63,0,31.7-2.7,45.21-8.1c13.5-5.4,24.14-13.18,31.92-23.33s11.67-22.57,11.67-37.27
					C1380.48,242.21,1378.37,232.44,1374.16,224.55z"/></g><g><polygon class="st0" points="1561.64,176.75 1514.65,176.75 1514.65,227.63 1461.67,227.63 1526.96,92.81 1478.35,92.81 
					1409,232.81 1409,267.81 1514.65,267.81 1514.65,319.67 1561.64,319.67 1561.64,267.81 1592.75,267.81 1592.75,227.63 
					1561.64,227.63 				"/><path class="st0" d="M1783.96,208.51c-7.13-10.37-17.18-18.47-30.14-24.31c-12.96-5.83-28.31-8.75-46.02-8.75
					c-3.03,0-7.13,0-12.31,0c-4.17,0-8.52,0.05-12.96,0.11v-41.6h101.76V92.81H1635.2v125.1c3.67-0.43,8.43-0.75,14.26-0.97
					c5.83-0.21,11.88-0.43,18.15-0.65c6.26-0.21,11.99-0.37,17.17-0.49c5.18-0.11,9.07-0.16,11.67-0.16
					c14.47,0,25.28,2.87,32.41,8.59c7.13,5.73,10.69,13.56,10.69,23.5c0,10.59-3.68,18.91-11.02,24.96
					c-7.35,6.05-17.39,9.07-30.14,9.07c-11.02,0-21.87-2.21-32.57-6.64c-10.7-4.43-20.69-10.32-29.98-17.66l-19.77,37.27
					c12.1,8,26.09,14.53,41.97,19.61s31.16,7.62,45.86,7.62c18.36,0,34.3-3.24,47.8-9.72s24.03-15.5,31.6-27.06
					c7.56-11.56,11.34-25.22,11.34-41C1794.65,230.76,1791.09,218.88,1783.96,208.51z"/></g></g><path class="st2" d="M225.38,155.07l-10.51,23.12c12.38-2.48,34.1-5.07,71.31-5.07s58.94,2.59,71.31,5.07l-10.51-23.12
			c-1.3-2.85-3.89-4.88-6.94-5.44c-9.45-1.72-27.08-4.47-46.1-5.1h-15.52c-19.02,0.63-36.64,3.38-46.08,5.1
			C229.28,150.18,226.67,152.21,225.38,155.07z"/><g><ellipse class="st2" cx="377.18" cy="206.65" rx="14.37" ry="14.37"/><path class="st2" d="M230.97,259.33h110.41c7.25,0,13.89-4.09,17.14-10.59l4.28-8.57c0,0-28.83-4.79-76.63-4.79
				s-76.63,4.79-76.63,4.79l4.28,8.57C217.08,255.23,223.71,259.33,230.97,259.33z"/><path class="st2" d="M195.18,221.01c7.93,0,14.37-6.44,14.37-14.37s-6.44-14.37-14.37-14.37c-6.74,0-12.38,4.65-13.93,10.91v6.92
				C182.81,216.36,188.45,221.01,195.18,221.01z"/></g></g><g><path class="st1" d="M520.88,380.88h30.45c4.9,0,8.89,0.71,11.99,2.13c3.09,1.42,5.48,3.19,7.15,5.31
			c1.68,2.13,2.82,4.45,3.43,6.96c0.61,2.51,0.92,4.83,0.92,6.96s-0.31,4.43-0.92,6.91s-1.76,4.79-3.43,6.91
			c-1.68,2.13-4.06,3.88-7.15,5.27c-3.09,1.39-7.09,2.08-11.99,2.08h-18.37v26.48h-12.08V380.88z M532.96,413.55h17.69
			c1.35,0,2.74-0.19,4.16-0.58c1.42-0.39,2.72-1.02,3.92-1.89c1.19-0.87,2.16-2.03,2.9-3.48s1.11-3.27,1.11-5.46
			c0-2.26-0.32-4.12-0.97-5.61c-0.65-1.48-1.52-2.66-2.61-3.53c-1.1-0.87-2.35-1.46-3.77-1.79c-1.42-0.32-2.93-0.48-4.54-0.48
			h-17.88v22.82H532.96z"/><path class="st1" d="M614.74,379.24c5.16,0,9.78,0.97,13.87,2.9c4.09,1.93,7.56,4.54,10.39,7.83c2.84,3.29,5.01,7.12,6.53,11.5
			c1.51,4.38,2.27,9.02,2.27,13.92c0,4.96-0.76,9.63-2.27,14.02c-1.52,4.38-3.69,8.22-6.53,11.5c-2.83,3.29-6.3,5.88-10.39,7.78
			s-8.72,2.85-13.87,2.85s-9.78-0.95-13.87-2.85c-4.09-1.9-7.56-4.49-10.39-7.78c-2.84-3.29-5.01-7.12-6.53-11.5
			s-2.27-9.05-2.27-14.02c0-4.9,0.76-9.54,2.27-13.92s3.69-8.22,6.53-11.5c2.83-3.29,6.3-5.9,10.39-7.83
			C604.96,380.2,609.58,379.24,614.74,379.24z M614.74,389.1c-3.67,0-6.85,0.74-9.52,2.22c-2.67,1.48-4.85,3.46-6.52,5.94
			c-1.68,2.48-2.92,5.3-3.72,8.46c-0.81,3.16-1.21,6.38-1.21,9.67s0.4,6.51,1.21,9.67s2.05,5.98,3.72,8.46
			c1.68,2.48,3.85,4.46,6.52,5.94c2.67,1.48,5.85,2.22,9.52,2.22c3.67,0,6.85-0.74,9.52-2.22c2.67-1.48,4.85-3.46,6.53-5.94
			c1.67-2.48,2.91-5.3,3.72-8.46c0.8-3.16,1.21-6.38,1.21-9.67s-0.4-6.51-1.21-9.67s-2.05-5.98-3.72-8.46
			c-1.68-2.48-3.85-4.46-6.53-5.94C621.59,389.84,618.41,389.1,614.74,389.1z"/><path class="st1" d="M652.05,380.88h12.28l12.47,52.78h0.19l13.92-52.78h12.37l13.53,52.78H717l12.86-52.78h12.28L723.1,449.9
			h-12.28L697,397.12h-0.19L682.7,449.9h-12.47L652.05,380.88z"/><path class="st1" d="M750.06,380.88h49.69v10.44h-37.6v18.08h34.8v9.86h-34.8v20.2h38.28v10.44h-50.36v-69.02H750.06z"/><path class="st1" d="M810.96,380.88h32.96c7.6,0,13.31,1.64,17.11,4.93c3.8,3.29,5.7,7.86,5.7,13.73c0,3.29-0.48,6.01-1.45,8.17
			c-0.97,2.16-2.1,3.9-3.39,5.22c-1.29,1.32-2.56,2.27-3.82,2.85c-1.26,0.58-2.18,0.96-2.76,1.16v0.19
			c1.03,0.13,2.14,0.45,3.33,0.97s2.3,1.34,3.33,2.46s1.89,2.59,2.56,4.4c0.68,1.8,1.02,4.06,1.02,6.77c0,4.06,0.31,7.75,0.92,11.07
			s1.56,5.69,2.85,7.11h-12.95c-0.9-1.48-1.44-3.13-1.59-4.93c-0.16-1.8-0.24-3.54-0.24-5.22c0-3.16-0.19-5.88-0.58-8.17
			s-1.1-4.19-2.13-5.7s-2.43-2.63-4.2-3.33c-1.77-0.71-4.04-1.06-6.81-1.06h-17.79v28.42h-12.08v-69.04H810.96z M823.04,412.3h19.82
			c3.87,0,6.8-0.92,8.79-2.76c2-1.84,3-4.59,3-8.27c0-2.19-0.32-3.98-0.97-5.36c-0.65-1.39-1.53-2.47-2.66-3.24
			c-1.13-0.77-2.42-1.29-3.87-1.55c-1.45-0.26-2.95-0.39-4.5-0.39h-19.62L823.04,412.3L823.04,412.3z"/><path class="st1" d="M879.01,380.88h49.69v10.44h-37.6v18.08h34.8v9.86h-34.8v20.2h38.28v10.44h-50.36v-69.02H879.01z"/><path class="st1" d="M939.91,380.88h28.61c5.28,0,9.86,0.9,13.73,2.71c3.87,1.8,7.02,4.27,9.47,7.39
			c2.45,3.13,4.27,6.78,5.46,10.97s1.79,8.67,1.79,13.44s-0.6,9.25-1.79,13.43c-1.19,4.19-3.01,7.85-5.46,10.97
			c-2.45,3.13-5.61,5.59-9.47,7.39c-3.87,1.81-8.44,2.71-13.73,2.71h-28.61V380.88z M951.99,440.04h11.89
			c4.7,0,8.55-0.63,11.55-1.88c3-1.26,5.35-3,7.06-5.22s2.87-4.83,3.48-7.83s0.92-6.24,0.92-9.72s-0.31-6.72-0.92-9.72
			s-1.77-5.61-3.48-7.83c-1.71-2.22-4.06-3.96-7.06-5.22s-6.85-1.88-11.55-1.88h-11.89V440.04z"/><path class="st1" d="M1036.57,380.88h33.54c6.18,0,11.15,1.42,14.88,4.25c3.74,2.84,5.61,7.12,5.61,12.86
			c0,3.48-0.85,6.46-2.56,8.94c-1.71,2.48-4.14,4.4-7.3,5.75v0.19c4.25,0.9,7.48,2.92,9.67,6.04c2.19,3.13,3.29,7.04,3.29,11.74
			c0,2.71-0.48,5.24-1.45,7.59s-2.48,4.38-4.54,6.09s-4.7,3.06-7.93,4.06c-3.22,1-7.05,1.5-11.5,1.5h-31.71V380.88z M1048.65,409.78
			h19.72c2.9,0,5.31-0.82,7.25-2.46c1.93-1.64,2.9-4.01,2.9-7.1c0-3.48-0.87-5.93-2.61-7.35s-4.25-2.13-7.54-2.13h-19.72V409.78z
			 M1048.65,440.04h21.36c3.67,0,6.52-0.95,8.55-2.85s3.04-4.59,3.04-8.07c0-3.41-1.02-6.04-3.04-7.88
			c-2.03-1.84-4.88-2.76-8.55-2.76h-21.36V440.04z"/><path class="st1" d="M1122.6,422.83l-25.91-41.95h14.01l18.27,30.93l17.98-30.93h13.53l-25.81,41.95v27.07h-12.08v-27.07H1122.6z"/></g><g><g><g><path class="st1" d="M1205.06,422.08c0,8.7-2.87,11.66-11.28,11.66l-0.01,16.15c2.58,0.38,4.78,0.48,6.98,0.48
					c15.2,0.01,24.28-7.26,24.29-25.9l0.02-50.85l-19.98-0.01L1205.06,422.08z M1238.02,450.2l19.31,0.01l0.02-58.88l-19.31-0.01
					L1238.02,450.2z M1301.42,391.34l-0.02,58.88l19.31,0.01l0.02-58.88L1301.42,391.34z"/></g></g><path class="st1" d="M1265.16,475.44c17.69-2.1,24.38-13.09,24.39-30.39l0.03-69.21l-19.12-0.01l-0.03,70.36
			c0,9.94-2.87,12.04-8.32,14.72L1265.16,475.44z M1280.02,370.68c6.31,0,11.19-4.2,11.19-10.51s-4.87-10.61-11.18-10.62
			c-6.31,0-11.09,4.3-11.09,10.61C1269.03,366.47,1273.71,370.68,1280.02,370.68z"/><path class="st3" d="M1311.09,362.66c6.02,0,10.9,4.88,10.89,10.9c0,6.02-4.88,10.9-10.9,10.89s-10.9-4.88-10.89-10.9
			C1300.19,367.63,1305.07,362.66,1311.09,362.66z"/><path class="st3" d="M1247.71,362.64c6.02,0,10.9,4.88,10.89,10.9c0,6.02-4.88,10.9-10.9,10.89s-10.9-4.88-10.89-10.9
			C1236.72,367.6,1241.69,362.64,1247.71,362.64z"/></g></g></svg>